<svg width="288" height="77" viewBox="0 0 288 77" fill="none" xmlns="http://www.w3.org/2000/svg">
<path d="M269.081 56.1207C276.939 52.9391 280.812 53.2141 284 60.5H263C255 60.5 245.5 47 257.5 35.5C268.479 24.9783 272.513 32.5 277 29C282.5 24.7099 269.5 15.5 260 12.5C259.153 18.241 277 24.5 275.5 26.5C272.125 31 252.5 16.5 255.5 8C282.968 10.0424 290.113 35.8412 285.5 40C282 43.1552 276.5 38 275 39C273.823 39.7849 278.14 43.2797 279.5 46C280.634 48.2682 278.952 52.2033 276 51C275.048 50.6118 274.254 48.9636 273 47.5C266.69 40.1383 262.5 46.5 262.5 46.5C269.4 42.3598 275.877 52.1863 269.081 56.1207Z" fill="#FF67A7"/>
<path d="M287.5 59C285.5 55.5 284.159 54.7514 281 53.5C283.058 55.4981 284.109 56.6494 285 59H287.5Z" fill="#FF67A7"/>
<path d="M260 22.5C257.5 20.5 255 17 254.5 15C251.078 14.8294 249.645 15.13 247.5 16C250.689 19.448 254.5 21.5 260 22.5Z" fill="#FF67A7"/>
<circle cx="281" cy="33" r="3" fill="#FFAED0"/>
<circle cx="247" cy="49" r="4" fill="#FF67A7"/>
<path d="M29.136 50.808C28.784 50.904 28.224 51 27.456 51.096C26.72 51.192 25.984 51.24 25.248 51.24C24.512 51.24 23.856 51.176 23.28 51.048C22.736 50.952 22.272 50.76 21.888 50.472C21.504 50.184 21.216 49.784 21.024 49.272C20.832 48.76 20.736 48.088 20.736 47.256V39.768H11.52V50.808C11.168 50.904 10.608 51 9.84 51.096C9.104 51.192 8.368 51.24 7.632 51.24C6.896 51.24 6.24 51.176 5.664 51.048C5.12 50.952 4.656 50.76 4.272 50.472C3.888 50.184 3.6 49.784 3.408 49.272C3.216 48.76 3.12 48.088 3.12 47.256V21.912C3.472 21.848 4.032 21.768 4.8 21.672C5.568 21.544 6.304 21.48 7.008 21.48C7.744 21.48 8.384 21.544 8.928 21.672C9.504 21.768 9.984 21.96 10.368 22.248C10.752 22.536 11.04 22.936 11.232 23.448C11.424 23.96 11.52 24.632 11.52 25.464V33.144H20.736V21.912C21.088 21.848 21.648 21.768 22.416 21.672C23.184 21.544 23.92 21.48 24.624 21.48C25.36 21.48 26 21.544 26.544 21.672C27.12 21.768 27.6 21.96 27.984 22.248C28.368 22.536 28.656 22.936 28.848 23.448C29.04 23.96 29.136 24.632 29.136 25.464V50.808ZM35.37 26.376C35.37 25 35.77 23.912 36.57 23.112C37.37 22.312 38.458 21.912 39.834 21.912H55.674C55.898 22.264 56.09 22.728 56.25 23.304C56.442 23.88 56.538 24.488 56.538 25.128C56.538 26.344 56.266 27.208 55.722 27.72C55.21 28.232 54.522 28.488 53.658 28.488H43.53V32.952H54.33C54.554 33.304 54.746 33.768 54.906 34.344C55.098 34.888 55.194 35.48 55.194 36.12C55.194 37.336 54.938 38.2 54.426 38.712C53.914 39.224 53.226 39.48 52.362 39.48H43.53V44.52H55.866C56.09 44.872 56.282 45.336 56.442 45.912C56.634 46.488 56.73 47.096 56.73 47.736C56.73 48.952 56.458 49.832 55.914 50.376C55.402 50.888 54.714 51.144 53.85 51.144H39.834C38.458 51.144 37.37 50.744 36.57 49.944C35.77 49.144 35.37 48.056 35.37 46.68V26.376ZM77.1184 50.808C76.7664 50.904 76.2224 51 75.4864 51.096C74.7504 51.192 74.0304 51.24 73.3264 51.24C71.8544 51.24 70.7504 51 70.0144 50.52C69.2784 50.008 68.9104 48.952 68.9104 47.352V40.872C68.1104 39.688 67.2464 38.376 66.3184 36.936C65.3904 35.496 64.4784 34.024 63.5824 32.52C62.6864 31.016 61.8544 29.544 61.0864 28.104C60.3184 26.632 59.6944 25.288 59.2144 24.072C59.6304 23.496 60.1904 22.968 60.8944 22.488C61.6304 22.008 62.5264 21.768 63.5824 21.768C64.8304 21.768 65.8384 22.024 66.6064 22.536C67.4064 23.048 68.1584 24.008 68.8624 25.416L72.8464 33.432H73.1344C73.5824 32.44 73.9664 31.544 74.2864 30.744C74.6384 29.912 74.9744 29.096 75.2944 28.296C75.6144 27.464 75.9504 26.616 76.3024 25.752C76.6544 24.856 77.0544 23.832 77.5024 22.68C78.0784 22.392 78.7184 22.168 79.4224 22.008C80.1264 21.848 80.7984 21.768 81.4384 21.768C82.5584 21.768 83.5024 22.072 84.2704 22.68C85.0704 23.256 85.4704 24.136 85.4704 25.32C85.4704 25.704 85.3904 26.168 85.2304 26.712C85.0704 27.256 84.7024 28.088 84.1264 29.208C83.5504 30.296 82.7024 31.784 81.5824 33.672C80.4944 35.56 79.0064 38.024 77.1184 41.064V50.808ZM107.186 45C107.634 45.128 108.21 45.224 108.914 45.288C109.618 45.32 110.29 45.336 110.93 45.336C112.21 45.336 113.266 45.08 114.098 44.568C114.962 44.024 115.394 43.192 115.394 42.072C115.394 41.016 115.042 40.264 114.338 39.816C113.634 39.368 112.562 39.144 111.122 39.144H107.186V45ZM107.186 33.288H110.69C112.066 33.288 113.058 33.032 113.666 32.52C114.306 32.008 114.626 31.256 114.626 30.264C114.626 29.4 114.258 28.712 113.522 28.2C112.818 27.688 111.746 27.432 110.306 27.432C109.826 27.432 109.266 27.448 108.626 27.48C108.018 27.512 107.538 27.56 107.186 27.624V33.288ZM110.306 51.768C109.762 51.768 109.122 51.752 108.386 51.72C107.65 51.688 106.882 51.624 106.082 51.528C105.314 51.432 104.546 51.304 103.778 51.144C103.01 51.016 102.306 50.824 101.666 50.568C99.9063 49.896 99.0263 48.728 99.0263 47.064V24.648C99.0263 23.976 99.2023 23.464 99.5543 23.112C99.9383 22.728 100.45 22.424 101.09 22.2C102.178 21.816 103.538 21.544 105.17 21.384C106.802 21.192 108.482 21.096 110.21 21.096C114.306 21.096 117.458 21.784 119.666 23.16C121.874 24.536 122.978 26.664 122.978 29.544C122.978 30.984 122.562 32.232 121.73 33.288C120.898 34.312 119.778 35.064 118.37 35.544C119.97 35.992 121.298 36.808 122.354 37.992C123.442 39.176 123.986 40.664 123.986 42.456C123.986 45.624 122.802 47.976 120.434 49.512C118.098 51.016 114.722 51.768 110.306 51.768ZM127.887 28.008C128.207 27.912 128.703 27.816 129.375 27.72C130.079 27.624 130.799 27.576 131.535 27.576C132.239 27.576 132.863 27.624 133.407 27.72C133.983 27.816 134.463 28.008 134.847 28.296C135.231 28.584 135.519 28.984 135.711 29.496C135.935 29.976 136.047 30.616 136.047 31.416V41.736C136.047 43.048 136.367 43.992 137.007 44.568C137.647 45.112 138.575 45.384 139.791 45.384C140.527 45.384 141.119 45.32 141.567 45.192C142.047 45.064 142.415 44.936 142.671 44.808V28.008C142.991 27.912 143.487 27.816 144.159 27.72C144.863 27.624 145.583 27.576 146.319 27.576C147.023 27.576 147.647 27.624 148.191 27.72C148.767 27.816 149.247 28.008 149.631 28.296C150.015 28.584 150.303 28.984 150.495 29.496C150.719 29.976 150.831 30.616 150.831 31.416V46.008C150.831 47.608 150.159 48.808 148.815 49.608C147.695 50.312 146.351 50.84 144.783 51.192C143.247 51.576 141.567 51.768 139.743 51.768C138.015 51.768 136.415 51.576 134.943 51.192C133.503 50.808 132.255 50.216 131.199 49.416C130.143 48.616 129.327 47.592 128.751 46.344C128.175 45.064 127.887 43.528 127.887 41.736V28.008ZM170.608 36.216C170.608 35.224 170.32 34.504 169.744 34.056C169.2 33.576 168.448 33.336 167.488 33.336C166.848 33.336 166.208 33.416 165.568 33.576C164.96 33.736 164.432 33.976 163.984 34.296V50.952C163.664 51.048 163.152 51.144 162.448 51.24C161.776 51.336 161.072 51.384 160.336 51.384C159.632 51.384 158.992 51.336 158.416 51.24C157.872 51.144 157.408 50.952 157.024 50.664C156.64 50.376 156.336 49.992 156.112 49.512C155.92 49 155.824 48.344 155.824 47.544V33.144C155.824 32.28 156 31.576 156.352 31.032C156.736 30.488 157.248 29.992 157.888 29.544C158.976 28.776 160.336 28.152 161.968 27.672C163.632 27.192 165.472 26.952 167.488 26.952C171.104 26.952 173.888 27.752 175.84 29.352C177.792 30.92 178.768 33.112 178.768 35.928V50.952C178.448 51.048 177.936 51.144 177.232 51.24C176.56 51.336 175.856 51.384 175.12 51.384C174.416 51.384 173.776 51.336 173.2 51.24C172.656 51.144 172.192 50.952 171.808 50.664C171.424 50.376 171.12 49.992 170.896 49.512C170.704 49 170.608 48.344 170.608 47.544V36.216ZM198.593 36.216C198.593 35.224 198.305 34.504 197.729 34.056C197.185 33.576 196.433 33.336 195.473 33.336C194.833 33.336 194.193 33.416 193.553 33.576C192.945 33.736 192.417 33.976 191.969 34.296V50.952C191.649 51.048 191.137 51.144 190.433 51.24C189.761 51.336 189.057 51.384 188.321 51.384C187.617 51.384 186.977 51.336 186.401 51.24C185.857 51.144 185.393 50.952 185.009 50.664C184.625 50.376 184.321 49.992 184.097 49.512C183.905 49 183.809 48.344 183.809 47.544V33.144C183.809 32.28 183.985 31.576 184.337 31.032C184.721 30.488 185.233 29.992 185.873 29.544C186.961 28.776 188.321 28.152 189.953 27.672C191.617 27.192 193.457 26.952 195.473 26.952C199.089 26.952 201.873 27.752 203.825 29.352C205.777 30.92 206.753 33.112 206.753 35.928V50.952C206.433 51.048 205.921 51.144 205.217 51.24C204.545 51.336 203.841 51.384 203.105 51.384C202.401 51.384 201.761 51.336 201.185 51.24C200.641 51.144 200.177 50.952 199.793 50.664C199.409 50.376 199.105 49.992 198.881 49.512C198.689 49 198.593 48.344 198.593 47.544V36.216ZM214.832 45.048C214.48 44.248 214.096 43.352 213.68 42.36C213.296 41.368 212.88 40.232 212.432 38.952C212.016 37.672 211.568 36.216 211.088 34.584C210.64 32.92 210.16 31.016 209.648 28.872C210.096 28.424 210.688 28.04 211.424 27.72C212.192 27.368 213.024 27.192 213.92 27.192C215.04 27.192 215.968 27.432 216.704 27.912C217.44 28.36 217.984 29.224 218.336 30.504L222.128 43.704H222.32C222.704 42.616 223.072 41.432 223.424 40.152C223.808 38.872 224.176 37.56 224.528 36.216C224.88 34.84 225.2 33.48 225.488 32.136C225.808 30.76 226.08 29.416 226.304 28.104C227.456 27.496 228.72 27.192 230.096 27.192C231.216 27.192 232.144 27.432 232.88 27.912C233.616 28.392 233.984 29.224 233.984 30.408C233.984 31.272 233.872 32.28 233.648 33.432C233.424 34.552 233.12 35.752 232.736 37.032C232.384 38.312 231.952 39.64 231.44 41.016C230.96 42.36 230.448 43.688 229.904 45C229.36 46.312 228.8 47.56 228.224 48.744C227.648 49.896 227.088 50.936 226.544 51.864C225.648 53.432 224.816 54.712 224.048 55.704C223.28 56.696 222.544 57.464 221.84 58.008C221.136 58.584 220.432 58.968 219.728 59.16C219.024 59.384 218.288 59.496 217.52 59.496C216.176 59.496 215.088 59.096 214.256 58.296C213.424 57.496 212.928 56.456 212.768 55.176C213.792 54.376 214.816 53.48 215.84 52.488C216.864 51.528 217.792 50.536 218.624 49.512C218.08 49.352 217.488 48.984 216.848 48.408C216.24 47.8 215.568 46.68 214.832 45.048Z" fill="#FF67A7"/>
</svg>
