<svg width="153" height="153" viewBox="0 0 153 153" fill="none" xmlns="http://www.w3.org/2000/svg">
<g opacity="0.5">
<path fill-rule="evenodd" clip-rule="evenodd" d="M14.3438 38.25C14.3438 35.6094 16.4844 33.4688 19.125 33.4688H127.5C130.141 33.4688 132.281 35.6094 132.281 38.25C132.281 40.8906 130.141 43.0312 127.5 43.0312H19.125C16.4844 43.0312 14.3438 40.8906 14.3438 38.25ZM14.3438 70.125C14.3438 67.4845 16.4844 65.3438 19.125 65.3438H57.375C60.0156 65.3438 62.1562 67.4845 62.1562 70.125C62.1562 72.7655 60.0156 74.9062 57.375 74.9062H19.125C16.4844 74.9062 14.3438 72.7655 14.3438 70.125ZM14.3438 102C14.3438 99.3595 16.4844 97.2188 19.125 97.2188H63.75C66.3905 97.2188 68.5312 99.3595 68.5312 102C68.5312 104.641 66.3905 106.781 63.75 106.781H19.125C16.4844 106.781 14.3438 104.641 14.3438 102Z" fill="#FF67A7"/>
</g>
<path d="M82.875 74.6819C82.875 85.8547 96.666 97.7313 105.124 103.965C108.019 106.099 109.467 107.166 111.562 107.166C113.658 107.166 115.106 106.099 118.001 103.965C126.459 97.7313 140.25 85.8547 140.25 74.6819C140.25 57.6147 124.471 51.2427 111.562 64.4271C98.6538 51.2427 82.875 57.6147 82.875 74.6819Z" fill="#FF67A7"/>
</svg>
