<svg width="153" height="154" viewBox="0 0 153 154" fill="none" xmlns="http://www.w3.org/2000/svg">
<path opacity="0.6" d="M125.693 130.31C134.787 125.352 140.25 118.994 140.25 112.062C140.25 104.715 134.112 98.0126 124.017 92.9375C112.344 87.0687 95.3808 83.375 76.5 83.375C57.6194 83.375 40.6558 87.0687 28.9827 92.9375C18.8882 98.0126 12.75 104.715 12.75 112.062C12.75 119.41 18.8882 126.112 28.9827 131.188C40.6558 137.056 57.6194 140.75 76.5 140.75C96.3046 140.75 114 136.686 125.693 130.31Z" fill="#FF67A7"/>
<path fill-rule="evenodd" clip-rule="evenodd" d="M58.9688 26C58.9688 16.3178 66.8176 8.46875 76.5 8.46875C86.1824 8.46875 94.0312 16.3178 94.0312 26C94.0312 35.6822 86.1824 43.5312 76.5 43.5312C66.8176 43.5312 58.9688 35.6822 58.9688 26Z" fill="#FF67A7"/>
<path d="M52.4222 74.2849L38.5547 69.6624C34.5656 68.3326 31.875 64.5994 31.875 60.3948C31.875 54.1755 37.6095 49.5397 43.6907 50.8428L55.7878 53.435C56.4604 53.5792 56.7968 53.6512 57.1303 53.7202C69.9082 56.3633 83.0917 56.3633 95.8698 53.7202C96.2032 53.6512 96.5398 53.5792 97.2124 53.435L109.309 50.8428C115.391 49.5397 121.125 54.1755 121.125 60.3948C121.125 64.5994 118.434 68.3326 114.445 69.6624L100.578 74.2849C98.9017 74.8434 98.0641 75.1226 97.4336 75.5121C95.2878 76.8362 94.1243 79.3014 94.466 81.8004C94.5667 82.5342 94.8836 83.3584 95.5179 85.007L103.466 105.673C105.832 111.824 101.291 118.436 94.7 118.436C91.3302 118.436 88.2179 116.63 86.5457 113.703L76.5 96.1231L66.4543 113.703C64.7821 116.63 61.67 118.436 58.2998 118.436C51.7088 118.436 47.1679 111.824 49.5339 105.673L57.4822 85.007C58.1163 83.3584 58.4334 82.5342 58.5338 81.8004C58.8754 79.3014 57.712 76.8362 55.5661 75.5121C54.936 75.1226 54.0981 74.8434 52.4222 74.2849Z" fill="#FF67A7"/>
</svg>
