<svg width="153" height="154" viewBox="0 0 153 154" fill="none" xmlns="http://www.w3.org/2000/svg">
<path d="M98.8125 48.3125C98.8125 60.6354 88.8229 70.625 76.5 70.625C64.1771 70.625 54.1875 60.6354 54.1875 48.3125C54.1875 35.9896 64.1771 26 76.5 26C88.8229 26 98.8125 35.9896 98.8125 48.3125Z" fill="#FF67A7"/>
<path opacity="0.4" d="M124.312 48.3125C124.312 57.1145 117.177 64.25 108.375 64.25C99.573 64.25 92.4375 57.1145 92.4375 48.3125C92.4375 39.5105 99.573 32.375 108.375 32.375C117.177 32.375 124.312 39.5105 124.312 48.3125Z" fill="#FF67A7"/>
<path opacity="0.4" d="M28.6875 48.3125C28.6875 57.1145 35.823 64.25 44.625 64.25C53.427 64.25 60.5625 57.1145 60.5625 48.3125C60.5625 39.5105 53.427 32.375 44.625 32.375C35.823 32.375 28.6875 39.5105 28.6875 48.3125Z" fill="#FF67A7"/>
<path d="M114.75 105.688C114.75 118.01 97.6248 128 76.5 128C55.3751 128 38.25 118.01 38.25 105.688C38.25 93.3646 55.3751 83.375 76.5 83.375C97.6248 83.375 114.75 93.3646 114.75 105.688Z" fill="#FF67A7"/>
<path opacity="0.4" d="M140.25 105.688C140.25 114.489 128.833 121.625 114.75 121.625C100.667 121.625 89.25 114.489 89.25 105.688C89.25 96.8855 100.667 89.75 114.75 89.75C128.833 89.75 140.25 96.8855 140.25 105.688Z" fill="#FF67A7"/>
<path opacity="0.4" d="M12.75 105.688C12.75 114.489 24.1667 121.625 38.25 121.625C52.3333 121.625 63.75 114.489 63.75 105.688C63.75 96.8855 52.3333 89.75 38.25 89.75C24.1667 89.75 12.75 96.8855 12.75 105.688Z" fill="#FF67A7"/>
</svg>
